<?xml version="1.0" encoding="UTF-8" standalone="no"?>
<!-- Created with Inkscape (http://www.inkscape.org/) -->

<svg
   xmlns:dc="http://purl.org/dc/elements/1.1/"
   xmlns:cc="http://creativecommons.org/ns#"
   xmlns:rdf="http://www.w3.org/1999/02/22-rdf-syntax-ns#"
   xmlns:svg="http://www.w3.org/2000/svg"
   xmlns="http://www.w3.org/2000/svg"
   xmlns:xlink="http://www.w3.org/1999/xlink"
   xmlns:sodipodi="http://sodipodi.sourceforge.net/DTD/sodipodi-0.dtd"
   xmlns:inkscape="http://www.inkscape.org/namespaces/inkscape"
   viewBox="0 0 600 600.00001"
   id="svg2"
   version="1.1"
   inkscape:version="0.91 r13725"
   sodipodi:docname="metal3d.svg"
  >
  <defs
     id="defs4">
    <linearGradient
       inkscape:collect="always"
       id="linearGradient4187">
      <stop
         style="stop-color:#000000;stop-opacity:1"
         offset="0"
         id="stop4189" />
      <stop
         style="stop-color:#000000;stop-opacity:0"
         offset="1"
         id="stop4191" />
    </linearGradient>
    <linearGradient
       inkscape:collect="always"
       xlink:href="#linearGradient4187"
       id="linearGradient4193"
       x1="564.31378"
       y1="35.459648"
       x2="554.0802"
       y2="6.3891253"
       gradientUnits="userSpaceOnUse"
       gradientTransform="matrix(0.55422535,0.94159965,-0.93494807,0.56049086,29.01007,-76.9925)" />
    <linearGradient
       inkscape:collect="always"
       xlink:href="#linearGradient4187"
       id="linearGradient4197"
       gradientUnits="userSpaceOnUse"
       gradientTransform="matrix(-0.44013327,-1.0000292,0.99415717,-0.44713469,498.119,1143.1245)"
       x1="564.31378"
       y1="35.459648"
       x2="562.80115"
       y2="12.036232" />
    <linearGradient
       inkscape:collect="always"
       xlink:href="#linearGradient4187"
       id="linearGradient4217"
       gradientUnits="userSpaceOnUse"
       gradientTransform="matrix(0.94159965,-0.55422535,0.56049086,0.93494807,-191.88643,891.56138)"
       x1="564.31378"
       y1="35.459648"
       x2="554.0802"
       y2="6.3891253" />
    <linearGradient
       inkscape:collect="always"
       xlink:href="#linearGradient4187"
       id="linearGradient4219"
       gradientUnits="userSpaceOnUse"
       gradientTransform="matrix(-1.0000292,0.44013327,-0.44713469,-0.99415717,1028.2306,422.45245)"
       x1="564.31378"
       y1="35.459648"
       x2="562.80115"
       y2="12.036232" />
    <linearGradient
       inkscape:collect="always"
       xlink:href="#linearGradient4187"
       id="linearGradient4227"
       gradientUnits="userSpaceOnUse"
       gradientTransform="matrix(-0.55422535,-0.94159965,0.93494807,-0.56049086,776.66745,1114.2336)"
       x1="564.31378"
       y1="35.459648"
       x2="554.0802"
       y2="6.3891253" />
    <linearGradient
       inkscape:collect="always"
       xlink:href="#linearGradient4187"
       id="linearGradient4229"
       gradientUnits="userSpaceOnUse"
       gradientTransform="matrix(0.44013327,1.0000292,-0.99415717,0.44713469,307.55852,-105.88344)"
       x1="564.31378"
       y1="35.459648"
       x2="562.80115"
       y2="12.036232" />
    <linearGradient
       inkscape:collect="always"
       xlink:href="#linearGradient4187"
       id="linearGradient4237"
       gradientUnits="userSpaceOnUse"
       gradientTransform="matrix(-0.94159965,0.55422535,-0.56049086,-0.93494807,998.74772,143.904)"
       x1="564.31378"
       y1="35.459648"
       x2="554.0802"
       y2="6.3891253" />
    <linearGradient
       inkscape:collect="always"
       xlink:href="#linearGradient4187"
       id="linearGradient4239"
       gradientUnits="userSpaceOnUse"
       gradientTransform="matrix(1.0000292,-0.44013327,0.44713469,0.99415717,-221.36932,613.01293)"
       x1="564.31378"
       y1="35.459648"
       x2="562.80115"
       y2="12.036232" />
    <linearGradient
       id="linearGradient4716"
       x1="519.19"
       gradientUnits="userSpaceOnUse"
       y1="618.77002"
       gradientTransform="translate(-1753,-219.36)"
       x2="758.25"
       y2="618.77002">
      <stop
         stop-color="#e4e4e4"
         offset="0"
         id="stop4718" />
      <stop
         stop-color="#f2f2f2"
         offset="0.02345666"
         id="stop4722" />
      <stop
         stop-color="#fbfbfb"
         offset=".058012"
         id="stop4724" />
      <stop
         stop-color="#f6f6f6"
         offset=".067014"
         id="stop4726" />
      <stop
         stop-color="#eaeaea"
         offset=".093458"
         id="stop4728" />
      <stop
         stop-color="#d5d5d5"
         offset=".12744"
         id="stop4730" />
      <stop
         stop-color="#b8b8b8"
         offset=".16716"
         id="stop4732" />
      <stop
         stop-color="#9e9e9e"
         offset=".20051"
         id="stop4734" />
      <stop
         stop-color="#a0a0a0"
         offset=".25414"
         id="stop4736" />
      <stop
         stop-color="#a6a6a6"
         offset=".28632"
         id="stop4738" />
      <stop
         stop-color="#b2b2b2"
         offset=".31298"
         id="stop4740" />
      <stop
         stop-color="#c2c2c2"
         offset=".33645"
         id="stop4742" />
      <stop
         stop-color="#d6d6d6"
         offset=".3578"
         id="stop4744" />
      <stop
         stop-color="#dbdbdb"
         offset=".36162"
         id="stop4746" />
      <stop
         stop-color="#d3d3d3"
         offset=".40049"
         id="stop4748" />
      <stop
         stop-color="#bdbdbd"
         offset=".46591"
         id="stop4750" />
      <stop
         stop-color="#999"
         offset=".54938"
         id="stop4752" />
      <stop
         stop-color="#747474"
         offset=".62415"
         id="stop4754" />
      <stop
         stop-color="#777"
         offset=".67693"
         id="stop4756" />
      <stop
         stop-color="#7a7a7a"
         offset=".72557"
         id="stop4758" />
      <stop
         stop-color="#777"
         offset=".72876"
         id="stop4760" />
      <stop
         stop-color="#646464"
         offset=".75382"
         id="stop4762" />
      <stop
         stop-color="#545454"
         offset=".77963"
         id="stop4764" />
      <stop
         stop-color="#494949"
         offset=".80586"
         id="stop4766" />
      <stop
         stop-color="#424242"
         offset=".83316"
         id="stop4768" />
      <stop
         stop-color="#404040"
         offset=".86279"
         id="stop4770" />
      <stop
         stop-color="#424242"
         offset=".86342"
         id="stop4772" />
      <stop
         stop-color="#5d5d5d"
         offset=".8767"
         id="stop4774" />
      <stop
         stop-color="#737373"
         offset=".89029"
         id="stop4776" />
      <stop
         stop-color="#838383"
         offset=".90431"
         id="stop4778" />
      <stop
         stop-color="#8c8c8c"
         offset=".91865"
         id="stop4780" />
      <stop
         stop-color="#8f8f8f"
         offset=".93437"
         id="stop4782" />
      <stop
         stop-color="#969696"
         offset=".93766"
         id="stop4784" />
      <stop
         stop-color="#acacac"
         offset=".94934"
         id="stop4786" />
      <stop
         stop-color="#bdbdbd"
         offset=".96134"
         id="stop4788" />
      <stop
         stop-color="#cacaca"
         offset=".97356"
         id="stop4790" />
      <stop
         stop-color="#d1d1d1"
         offset=".98619"
         id="stop4792" />
      <stop
         stop-color="#d3d3d3"
         offset="1"
         id="stop4794" />
    </linearGradient>
    <linearGradient
       inkscape:collect="always"
       xlink:href="#linearGradient4716"
       id="linearGradient4791"
       x1="223.35432"
       y1="375.23547"
       x2="435.44662"
       y2="471.24335"
       gradientUnits="userSpaceOnUse"
       spreadMethod="reflect" />
    <linearGradient
       inkscape:collect="always"
       xlink:href="#linearGradient4716"
       id="linearGradient4799"
       x1="285.26974"
       y1="623.59991"
       x2="548.68494"
       y2="370.30429"
       gradientUnits="userSpaceOnUse"
       spreadMethod="reflect" />
    <filter
       inkscape:collect="always"
       style="color-interpolation-filters:sRGB"
       id="filter4811"
       x="-0.017999999"
       width="1.036"
       y="-0.017999999"
       height="1.036">
      <feGaussianBlur
         inkscape:collect="always"
         stdDeviation="3.75"
         id="feGaussianBlur4813" />
    </filter>
    <filter
       inkscape:collect="always"
       style="color-interpolation-filters:sRGB"
       id="filter4845"
       x="-0.0083986176"
       width="1.0167972"
       y="-0.0084013827"
       height="1.0168028">
      <feGaussianBlur
         inkscape:collect="always"
         stdDeviation="1.6938269"
         id="feGaussianBlur4847" />
    </filter>
  </defs>
  <sodipodi:namedview
     id="base"
     pagecolor="#ffffff"
     bordercolor="#666666"
     borderopacity="1.0"
     inkscape:pageopacity="0.0"
     inkscape:pageshadow="2"
     inkscape:zoom="1.2089742"
     inkscape:cx="169.50057"
     inkscape:cy="276.22516"
     inkscape:document-units="px"
     inkscape:current-layer="layer1"
     showgrid="false"
     fit-margin-top="0"
     fit-margin-left="0"
     fit-margin-right="0"
     fit-margin-bottom="0"
     showguides="true"
     inkscape:guide-bbox="true" />
  <metadata
     id="metadata7">
    <rdf:RDF>
      <cc:Work
         rdf:about="">
        <dc:format>image/svg+xml</dc:format>
        <dc:type
           rdf:resource="http://purl.org/dc/dcmitype/StillImage" />
        <dc:title></dc:title>
      </cc:Work>
    </rdf:RDF>
  </metadata>
  <g
     inkscape:label="Layer 1"
     inkscape:groupmode="layer"
     id="layer1"
     transform="translate(-149.64592,-171.12442)">
    <g
       id="g4202"
       transform="translate(42.966503,-52.869504)">
      <path
         inkscape:connector-curvature="0"
         id="path4801"
         d="m 403.68004,274.05158 c -35.56024,0.57538 -68.55589,25.49844 -79.33584,59.3856 -9.43642,27.63665 -2.87007,59.21015 14.93361,82.04408 -15.78997,10.63091 -29.59418,24.19329 -40.3389,39.90044 -3.10649,2.0961 -5.83471,-3.06062 -8.68377,-3.92787 -14.87705,-9.4446 -32.45893,-15.06137 -50.19877,-13.65614 -23.92487,-0.17263 -46.89306,12.17571 -62.45747,29.92187 -22.85015,25.94184 -27.70434,66.076 -10.97369,96.46125 17.42549,34.33171 59.63644,54.0294 97.00354,43.94619 12.66569,-2.88613 24.04093,-9.81299 34.66362,-16.68976 10.75538,16.16724 24.87187,30.24943 40.899,41.04204 -5.16539,7.89582 -10.58677,15.90633 -13.75354,24.95246 -6.27717,13.71384 -4.9885,29.09528 -4.23171,43.72307 2.07431,17.37458 11.26369,33.41986 22.98289,46.13597 18.01567,18.98786 44.90578,29.35913 71.0234,26.11451 33.86645,-2.53968 63.78311,-28.0233 73.88033,-60.14958 4.78978,-12.90362 3.59535,-27.01057 2.83505,-40.47297 -2.60916,-14.68578 -9.4858,-28.37767 -18.34138,-40.27579 16.43489,-10.50855 30.04312,-24.92224 41.30007,-40.72032 2.75123,-0.31982 5.00201,3.67635 7.6737,4.54194 25.5632,17.10138 60.4085,19.28281 87.4792,4.36294 33.0622,-16.76675 52.7209,-56.39933 44.94466,-92.84575 -6.24479,-34.01868 -34.45331,-62.61219 -68.49722,-68.90699 -24.83165,-5.01217 -51.79357,2.1189 -71.25807,18.22451 -10.3667,-16.09755 -24.33136,-29.4892 -39.63705,-40.82583 -3.48845,-2.56783 2.80822,-6.04262 3.45909,-8.92173 8.99376,-13.68538 14.61145,-30.04433 13.41117,-46.57185 0.63512,-13.42522 -2.02595,-26.93572 -8.68023,-38.6919 -14.27636,-29.98436 -46.9802,-49.35663 -80.10169,-48.10039 z m 51.79492,27.73728 c 25.42245,20.44244 34.21654,57.60467 21.91704,87.52742 -10.44818,27.31686 -38.07836,46.31839 -67.04614,47.69095 -19.99645,0.93504 -40.6556,5.44319 -56.39841,18.55608 -10.74848,8.9711 -20.51517,19.47658 -25.99595,32.5534 -2.26708,7.51133 -4.36307,6.23015 -6.45324,-0.4227 -4.02631,-8.63602 -10.02022,-16.22054 -15.43544,-23.88182 3.73628,-8.71922 11.11121,-15.51143 17.25894,-22.62281 20.51498,-20.62275 48.6915,-32.99029 77.68617,-34.50311 12.68003,-1.0581 26.42055,-2.84174 35.86809,-12.33489 17.11024,-14.71858 20.24836,-42.68766 6.27168,-60.5581 -12.70981,-18.09685 -39.16292,-23.95064 -58.36912,-13.06433 -23.20151,11.55746 -31.11657,44.91079 -15.53571,65.66414 3.36484,4.68976 7.73645,8.50714 11.55455,12.80488 -11.10656,2.63471 -22.12264,6.45091 -32.44055,11.40038 -11.48376,-14.33132 -19.2634,-32.42427 -17.69947,-51.07939 -1.25578,-24.17405 12.25977,-47.45605 31.60331,-61.28288 12.01396,-8.14809 26.54735,-14.55676 41.41933,-13.36426 19.9399,-0.77562 37.89005,6.16905 51.79492,16.91704 z m -48.54671,23.46148 c 16.80821,-0.55654 32.58586,12.98759 34.68679,29.724 2.86856,14.70633 -5.04569,30.23279 -18.4285,37.01775 -16.10916,9.52534 -38.8251,2.8996 -47.57519,-13.63686 -10.21432,-17.28604 -2.82421,-42.98166 16.45191,-50.30105 4.73209,-1.95866 9.78143,-2.84504 14.86499,-2.80384 z m 59.79009,98.20305 c 11.85273,6.28378 21.74592,15.99939 30.48513,26.07725 17.47063,20.50587 25.56454,47.23602 27.05767,73.7811 0.85735,12.39149 4.61769,25.24971 14.40688,33.56459 16.55049,16.83521 47.02275,16.74251 63.14894,-0.70916 10.37473,-9.33295 14.74107,-23.74274 12.93998,-37.39798 -1.06639,-23.72278 -24.75864,-42.11588 -47.8681,-40.05573 -14.08527,0.64926 -26.86257,8.84921 -35.14248,19.98655 -2.2633,-10.86655 -6.73916,-21.15288 -10.57093,-31.38692 0.2344,-4.94051 6.64178,-6.33318 9.87184,-9.13187 22.41458,-13.2962 51.64529,-14.63117 74.54514,-1.89316 26.91516,13.71821 43.6677,44.55471 40.51166,74.49783 -2.0837,24.88827 -16.93893,48.68458 -39.41878,60.23629 -9.99928,6.05591 -21.44193,8.97393 -33.05811,8.75941 -14.12644,1.44172 -28.38307,-1.57112 -40.65646,-8.71435 -19.44184,-11.26973 -34.6824,-30.71357 -37.96173,-53.38449 -2.96777,-18.42467 -2.55898,-38.13045 -12.58192,-54.63734 -10.08308,-18.31147 -26.84737,-33.07014 -46.37218,-40.43054 3.44015,-2.65818 9.50559,-4.54926 13.7033,-7.31485 6.16712,-3.10448 11.27589,-7.8751 16.74061,-11.86047 l 0.0535,-0.003 0.16595,0.0173 z m -222.73958,24.07207 c 35.92185,-0.46836 69.58468,28.42053 74.55653,64.12127 2.13714,18.44411 2.77301,37.92618 12.55373,54.34506 10.29864,18.00164 26.82856,32.54349 46.32882,39.7638 -11.57382,4.25048 -21.85923,11.83835 -31.41198,19.21337 -22.77313,-14.61061 -41.23991,-36.23534 -50.07011,-61.99921 -6.25298,-16.23287 -5.90635,-34.0628 -8.66548,-51.09816 -5.81343,-19.30206 -24.6442,-34.56249 -45.22073,-33.34666 -20.50268,0.60877 -39.93938,16.00918 -43.44363,36.56214 -5.36789,23.84242 12.14892,50.18386 36.56865,53.52002 15.37897,3.26308 31.65473,-2.7201 41.97598,-14.42733 1.48112,-0.78391 4.89608,-6.04166 5.15321,-1.97531 2.18663,10.30396 7.13,20.01024 9.99527,29.95474 -7.35902,7.78928 -17.93131,11.93161 -27.88372,15.52741 -11.13866,3.37514 -23.05539,1.94515 -34.50633,1.59823 -15.62004,-2.08087 -30.02764,-10.72582 -41.22573,-21.61591 -23.2449,-22.89329 -28.69603,-61.01444 -13.07751,-89.51827 12.88953,-25.11568 40.25771,-41.09872 68.37303,-40.62519 z m 161.10498,0.007 c 30.76011,-0.80348 61.28972,18.58266 72.29196,47.67193 12.2576,29.72345 3.53052,66.84566 -21.52042,87.40287 -14.85802,12.82906 -34.70764,18.9839 -54.20126,17.47158 -37.52418,-0.74922 -70.97212,-34.89942 -71.23461,-72.40382 -2.86942,-34.57148 21.96039,-68.75857 55.43615,-77.42176 6.27759,-1.73665 12.6926,-2.6394 19.22818,-2.7208 z m -162.10071,40.74453 c 16.08445,-0.0839 32.94716,12.19653 34.99036,28.7526 0.4438,9.47599 0.926,19.96695 -5.75135,27.60237 -6.75831,9.24329 -17.7902,15.85033 -29.53461,14.6591 -21.5039,1.55682 -39.10365,-21.62549 -34.35246,-42.14211 2.77329,-16.51924 18.12189,-28.83698 34.64806,-28.87196 z m 327.04684,0.11069 c 17.93687,-0.53771 34.78503,14.8245 35.50895,32.96613 1.81667,19.59032 -15.41694,39.34453 -35.42425,37.958 -11.40604,0.96723 -22.39274,-5.15825 -28.92439,-14.21975 -7.39809,-9.68059 -8.1392,-23.4481 -4.1938,-34.7529 5.35872,-13.26936 18.79701,-22.1945 33.03349,-21.95148 z m -80.10563,68.28982 c 4.36506,10.00931 10.38426,19.34727 17.81411,27.35848 -15.56897,24.57943 -39.37672,44.56056 -67.7382,52.26084 -16.92106,5.86612 -35.55164,3.34502 -52.34157,9.6914 -20.53704,8.94252 -31.8357,34.3739 -24.28507,55.57388 6.43631,20.9117 29.37475,34.91639 50.89129,30.64934 20.81618,-3.3726 37.85448,-22.64359 37.49521,-43.9704 0.90943,-14.68487 -6.82044,-28.44169 -17.82334,-37.68888 -2.88925,-3.04536 6.84222,-3.07132 9.50655,-4.84969 7.17926,-1.93674 13.88136,-5.64518 21.06068,-7.3612 4.40444,2.57354 6.20234,8.32937 9.1461,12.381 6.45132,11.62488 9.79176,24.91599 8.75486,38.2435 1.26272,30.10318 -19.85091,58.40808 -47.24196,69.51272 -14.84818,6.13565 -31.63478,6.7444 -47.20699,3.31754 -33.79458,-7.88459 -59.64459,-41.32975 -57.58602,-76.13741 -0.65049,-36.71326 30.47215,-70.69594 66.9853,-74.00474 17.26774,-2.23689 35.66965,-2.5058 50.96301,-11.96422 18.49044,-10.16669 32.05473,-27.53314 40.13839,-46.80017 0.48921,1.26267 0.97842,2.52534 1.46765,3.78801 z m -82.99599,95.35944 c 16.80821,-0.55654 32.58586,12.98759 34.68679,29.72399 2.86856,14.70633 -5.04569,30.2328 -18.4285,37.01776 -16.10916,9.52533 -38.8251,2.89959 -47.57519,-13.63687 -10.21432,-17.28604 -2.82421,-42.98166 16.45191,-50.30106 4.73209,-1.95865 9.78143,-2.84503 14.86499,-2.80382 z"
         style="color:#000000;display:inline;overflow:visible;visibility:visible;fill:#000000;fill-opacity:1;fill-rule:nonzero;stroke:none;stroke-width:1px;stroke-linecap:butt;stroke-linejoin:miter;stroke-opacity:1;marker:none;filter:url(#filter4811);enable-background:accumulate"
         sodipodi:nodetypes="ccccccccccccccccccccccccccccccccccccccccccccccccccccccccccccccccccccccccccccccccccccccccccccccccccccccccccccccccccccccccccccccccccccccccccc" />
      <path
         id="path4139"
         d="m 400.47704,275.49387 c -13.51466,0.1565 -26.98821,3.71543 -38.33203,11.24219 -22.99198,14.38125 -38.43173,40.75972 -37.40429,68.16601 0.28587,18.44167 7.02823,36.89997 19.53515,50.56446 11.55908,-3.90894 22.60987,-9.13031 34.63672,-11.4961 -1.173,-7.61526 -9.48843,-10.72949 -12.69727,-17.30273 -13.14767,-20.31794 -5.16685,-50.7984 16.70313,-61.52539 19.70925,-10.37911 47.07087,-3.44394 57.83984,16.54687 11.90674,19.07568 5.45312,46.47748 -13.58203,58.38477 -13.02604,9.21038 -29.7581,6.34833 -44.62695,9.41601 -31.63287,4.76763 -59.40233,24.57183 -77.98047,50.11133 -4.80505,3.69149 -3.86915,11.14964 0.99219,14.33008 6.67733,8.27906 11.40851,17.9063 15.44531,27.69141 6.87365,-11.94423 12.43785,-24.96314 22.82813,-34.4375 15.76852,-15.77217 37.66207,-24.66508 59.74804,-24.47657 20.02535,-0.93563 40.06623,-8.13478 54.34766,-22.55664 17.10492,-16.20294 25.99029,-40.39598 23.4375,-63.83007 -2.57813,-37.46387 -37.13032,-71.4033 -75.10156,-70.68751 -1.92628,-0.1148 -3.8584,-0.16298 -5.78907,-0.14062 z m 63.17969,139.21289 c -7.31467,3.21513 -12.58164,10.3241 -20.26953,13.2832 -4.74808,2.27789 -9.54968,4.4815 -13.91992,7.45313 14.00019,6.83734 27.91848,14.66996 37.92578,26.95312 13.51441,15.28652 20.07504,35.58243 20.50586,55.79688 1.18266,18.74506 7.42773,37.46754 20.38673,51.35156 15.932,18.00919 40.3849,28.32596 64.4609,25.69727 31.096,-1.27341 59.3081,-24.25507 68.7246,-53.65235 9.0137,-26.85017 2.0965,-58.34128 -17.9882,-78.47656 -19.0557,-20.57407 -49.4817,-29.89621 -76.5997,-22.10351 -11.8872,3.16367 -22.9816,9.16936 -32.2207,17.28515 4.6342,11.05901 9.5967,22.1724 11.4961,34.10352 6.6238,0.90561 8.9835,-7.08367 13.9629,-9.8418 19.2636,-15.52462 51.1389,-9.94804 63.6895,11.48047 11.1514,17.93657 7.3421,43.67413 -9.4688,56.82227 -18.4959,15.74292 -49.9195,11.88735 -63.289,-8.63868 -7.4436,-9.55528 -7.6739,-21.90386 -8.4434,-33.4082 -2.3941,-25.6264 -12.0202,-50.78567 -29.3555,-70.03125 -8.38826,-9.46729 -18.06608,-18.8348 -29.59762,-24.07422 z m -226.18555,23.84375 c -37.23591,0.36686 -71.4678,31.43895 -75.45507,68.5586 -3.52938,25.80252 6.75657,52.82272 26.6875,69.5996 15.94555,14.0371 37.66736,20.70049 58.7539,18.59961 16.23002,-1.19392 31.54885,-8.68389 44.20703,-18.66211 -3.5708,-11.67752 -9.41285,-23.01943 -11.16211,-34.9707 -7.09804,-0.35272 -9.71248,7.9455 -15.23242,10.94727 -18.86515,14.08481 -49.25526,8.82891 -61.48633,-11.38867 -11.94419,-17.19267 -9.07282,-42.83288 6.9375,-56.38477 15.86194,-14.85447 43.37346,-15.12751 59.00782,0.5 10.09502,9.14402 14.62326,22.71377 14.01172,36.1543 1.54869,29.71343 13.60415,58.9269 34.95507,79.875 6.99284,7.20391 14.89518,13.57719 23.6875,18.45507 10.47737,-6.16053 19.82575,-14.67393 31.38086,-18.58203 3.12406,-2.53197 0.0702,-5.1379 -3.17773,-5.90234 -28.58162,-11.87527 -49.19902,-40.78337 -51.32617,-71.3418 0.24629,-24.29097 -8.13795,-49.64367 -27.21485,-65.56445 -13.94525,-12.25565 -32.22787,-20.16688 -50.96093,-19.83203 -1.2065,-0.0529 -2.41213,-0.0724 -3.61329,-0.0606 z m 248.68555,106.23633 -0.94336,0.29297 -0.67383,0.20898 c -3.8888,3.27627 -4.87185,9.9609 -8.24218,14.30469 -13.67006,23.70946 -39.27715,40.35289 -66.81836,41.49805 -17.19271,1.22994 -35.3233,3.35002 -49.56836,14.02148 -21.91748,14.67087 -36.25457,40.45319 -35.23242,67.04297 0.21574,31.46129 21.33445,61.28211 50.94531,71.92969 27.70881,11.2409 61.27108,4.0484 82.23828,-17.16016 20.08286,-19.28268 29.0358,-49.51745 21.29687,-76.45898 -3.08669,-11.84273 -8.87997,-23.09182 -17.42773,-31.91797 -11.60204,5.09414 -23.50942,9.23917 -35.80078,12.37305 9.68647,9.71812 19.85255,20.8455 20.76562,35.29492 2.58255,23.43649 -16.59612,46.64491 -40.33593,47.78711 -21.89484,1.99683 -43.40083,-15.03727 -46.09375,-36.91602 -3.38427,-20.44794 9.70892,-42.81623 30.2832,-48.06445 14.74637,-3.57541 30.17774,-1.89151 44.77539,-6.75782 28.93032,-7.97051 54.42498,-27.55807 69.81645,-53.27148 2.7994,-3.68444 -3.0761,-6.01983 -4.5996,-9.2832 -5.8519,-7.64744 -10.2141,-16.28272 -14.38482,-24.92383 z"
         style="color:#000000;display:inline;overflow:visible;visibility:visible;fill:url(#linearGradient4791);fill-opacity:1;fill-rule:nonzero;stroke:none;stroke-width:1px;stroke-linecap:butt;stroke-linejoin:miter;stroke-opacity:1;marker:none;enable-background:accumulate"
         inkscape:connector-curvature="0" />
      <path
         inkscape:connector-curvature="0"
         style="color:#000000;display:inline;overflow:visible;visibility:visible;opacity:1;fill:none;fill-opacity:1;fill-rule:nonzero;stroke:#000000;stroke-width:3.70000005;stroke-linecap:butt;stroke-linejoin:miter;stroke-miterlimit:4;stroke-dasharray:none;stroke-opacity:1;marker:none;filter:url(#filter4845);enable-background:accumulate"
         d="m 402.47704,279.49387 c -13.51466,0.1565 -26.98821,3.71543 -38.33203,11.24219 -22.99198,14.38125 -38.43173,40.75972 -37.40429,68.16601 0.28587,18.44167 7.02823,36.89997 19.53515,50.56446 11.55908,-3.90894 22.60987,-9.13031 34.63672,-11.4961 -1.173,-7.61526 -9.48843,-10.72949 -12.69727,-17.30273 -13.14767,-20.31794 -5.16685,-50.7984 16.70313,-61.52539 19.70925,-10.37911 47.07087,-3.44394 57.83984,16.54687 11.90674,19.07568 5.45312,46.47748 -13.58203,58.38477 -13.02604,9.21038 -29.7581,6.34833 -44.62695,9.41601 -31.63287,4.76763 -59.40233,24.57183 -77.98047,50.11133 -4.80505,3.69149 -3.86915,11.14964 0.99219,14.33008 6.67733,8.27906 11.40851,17.9063 15.44531,27.69141 6.87365,-11.94423 12.43785,-24.96314 22.82813,-34.4375 15.76852,-15.77217 37.66207,-24.66508 59.74804,-24.47657 20.02535,-0.93563 40.06623,-8.13478 54.34766,-22.55664 17.10492,-16.20294 25.99029,-40.39598 23.4375,-63.83007 -2.57813,-37.46387 -37.13032,-71.4033 -75.10156,-70.68751 -1.92628,-0.1148 -3.8584,-0.16298 -5.78907,-0.14062 z m 63.17969,139.21289 c -7.31467,3.21513 -12.58164,10.3241 -20.26953,13.2832 -4.74808,2.27789 -9.54968,4.4815 -13.91992,7.45313 14.00019,6.83734 27.91848,14.66996 37.92578,26.95312 13.51441,15.28652 20.07504,35.58243 20.50586,55.79688 1.18266,18.74506 7.42773,37.46754 20.38673,51.35156 15.932,18.00919 40.3849,28.32596 64.4609,25.69727 31.096,-1.27341 59.3081,-24.25507 68.7246,-53.65235 9.0137,-26.85017 2.0965,-58.34128 -17.9882,-78.47656 -19.0557,-20.57407 -49.4817,-29.89621 -76.5997,-22.10351 -11.8872,3.16367 -22.9816,9.16936 -32.2207,17.28515 4.6342,11.05901 9.5967,22.1724 11.4961,34.10352 6.6238,0.90561 8.9835,-7.08367 13.9629,-9.8418 19.2636,-15.52462 51.1389,-9.94804 63.6895,11.48047 11.1514,17.93657 7.3421,43.67413 -9.4688,56.82227 -18.4959,15.74292 -49.9195,11.88735 -63.289,-8.63868 -7.4436,-9.55528 -7.6739,-21.90386 -8.4434,-33.4082 -2.3941,-25.6264 -12.0202,-50.78567 -29.3555,-70.03125 -8.38826,-9.46729 -18.06608,-18.8348 -29.59762,-24.07422 z m -226.18555,23.84375 c -37.23591,0.36686 -71.4678,31.43895 -75.45507,68.5586 -3.52938,25.80252 6.75657,52.82272 26.6875,69.5996 15.94555,14.0371 37.66736,20.70049 58.7539,18.59961 16.23002,-1.19392 31.54885,-8.68389 44.20703,-18.66211 -3.5708,-11.67752 -9.41285,-23.01943 -11.16211,-34.9707 -7.09804,-0.35272 -9.71248,7.9455 -15.23242,10.94727 -18.86515,14.08481 -49.25526,8.82891 -61.48633,-11.38867 -11.94419,-17.19267 -9.07282,-42.83288 6.9375,-56.38477 15.86194,-14.85447 43.37346,-15.12751 59.00782,0.5 10.09502,9.14402 14.62326,22.71377 14.01172,36.1543 1.54869,29.71343 13.60415,58.9269 34.95507,79.875 6.99284,7.20391 14.89518,13.57719 23.6875,18.45507 10.47737,-6.16053 19.82575,-14.67393 31.38086,-18.58203 3.12406,-2.53197 0.0702,-5.1379 -3.17773,-5.90234 -28.58162,-11.87527 -49.19902,-40.78337 -51.32617,-71.3418 0.24629,-24.29097 -8.13795,-49.64367 -27.21485,-65.56445 -13.94525,-12.25565 -32.22787,-20.16688 -50.96093,-19.83203 -1.2065,-0.0529 -2.41213,-0.0724 -3.61329,-0.0606 z m 248.68555,106.23633 -0.94336,0.29297 -0.67383,0.20898 c -3.8888,3.27627 -4.87185,9.9609 -8.24218,14.30469 -13.67006,23.70946 -39.27715,40.35289 -66.81836,41.49805 -17.19271,1.22994 -35.3233,3.35002 -49.56836,14.02148 -21.91748,14.67087 -36.25457,40.45319 -35.23242,67.04297 0.21574,31.46129 21.33445,61.28211 50.94531,71.92969 27.70881,11.2409 61.27108,4.0484 82.23828,-17.16016 20.08286,-19.28268 29.0358,-49.51745 21.29687,-76.45898 -3.08669,-11.84273 -8.87997,-23.09182 -17.42773,-31.91797 -11.60204,5.09414 -23.50942,9.23917 -35.80078,12.37305 9.68647,9.71812 19.85255,20.8455 20.76562,35.29492 2.58255,23.43649 -16.59612,46.64491 -40.33593,47.78711 -21.89484,1.99683 -43.40083,-15.03727 -46.09375,-36.91602 -3.38427,-20.44794 9.70892,-42.81623 30.2832,-48.06445 14.74637,-3.57541 30.17774,-1.89151 44.77539,-6.75782 28.93032,-7.97051 54.42498,-27.55807 69.81645,-53.27148 2.7994,-3.68444 -3.0761,-6.01983 -4.5996,-9.2832 -5.8519,-7.64744 -10.2141,-16.28272 -14.38482,-24.92383 z"
         id="path4815" />
      <path
         sodipodi:nodetypes="ccccccccccccccccccccccccccccccccccccccccccccccccccccccccccccccccccccccccccccccccccccccccccccccccccccccccccccccccccccccccccccccccccccccccccc"
         style="color:#000000;display:inline;overflow:visible;visibility:visible;fill:url(#linearGradient4799);fill-opacity:1;fill-rule:nonzero;stroke:none;stroke-width:1px;stroke-linecap:butt;stroke-linejoin:miter;stroke-opacity:1;marker:none;enable-background:accumulate"
         d="m 399.68004,268.05158 c -35.56024,0.57538 -68.55589,25.49844 -79.33584,59.3856 -9.43642,27.63665 -2.87007,59.21015 14.93361,82.04408 -15.78997,10.63091 -29.59418,24.19329 -40.3389,39.90044 -3.10649,2.0961 -5.83471,-3.06062 -8.68377,-3.92787 -14.87705,-9.4446 -32.45893,-15.06137 -50.19877,-13.65614 -23.92487,-0.17263 -46.89306,12.17571 -62.45747,29.92187 -22.85015,25.94184 -27.70434,66.076 -10.97369,96.46125 17.42549,34.33171 59.63644,54.0294 97.00354,43.94619 12.66569,-2.88613 24.04093,-9.81299 34.66362,-16.68976 10.75538,16.16724 24.87187,30.24943 40.899,41.04204 -5.16539,7.89582 -10.58677,15.90633 -13.75354,24.95246 -6.27717,13.71384 -4.9885,29.09528 -4.23171,43.72307 2.07431,17.37458 11.26369,33.41986 22.98289,46.13597 18.01567,18.98786 44.90578,29.35913 71.0234,26.11451 33.86645,-2.53968 63.78311,-28.0233 73.88033,-60.14958 4.78978,-12.90362 3.59535,-27.01057 2.83505,-40.47297 -2.60916,-14.68578 -9.4858,-28.37767 -18.34138,-40.27579 16.43489,-10.50855 30.04312,-24.92224 41.30007,-40.72032 2.75123,-0.31982 5.00201,3.67635 7.6737,4.54194 25.5632,17.10138 60.4085,19.28281 87.4792,4.36294 33.0622,-16.76675 52.7209,-56.39933 44.94466,-92.84575 -6.24479,-34.01868 -34.45331,-62.61219 -68.49722,-68.90699 -24.83165,-5.01217 -51.79357,2.1189 -71.25807,18.22451 -10.3667,-16.09755 -24.33136,-29.4892 -39.63705,-40.82583 -3.48845,-2.56783 2.80822,-6.04262 3.45909,-8.92173 8.99376,-13.68538 14.61145,-30.04433 13.41117,-46.57185 0.63512,-13.42522 -2.02595,-26.93572 -8.68023,-38.6919 -14.27636,-29.98436 -46.9802,-49.35663 -80.10169,-48.10039 z m 51.79492,27.73728 c 25.42245,20.44244 34.21654,57.60467 21.91704,87.52742 -10.44818,27.31686 -38.07836,46.31839 -67.04614,47.69095 -19.99645,0.93504 -40.6556,5.44319 -56.39841,18.55608 -10.74848,8.9711 -20.51517,19.47658 -25.99595,32.5534 -2.26708,7.51133 -4.36307,6.23015 -6.45324,-0.4227 -4.02631,-8.63602 -10.02022,-16.22054 -15.43544,-23.88182 3.73628,-8.71922 11.11121,-15.51143 17.25894,-22.62281 20.51498,-20.62275 48.6915,-32.99029 77.68617,-34.50311 12.68003,-1.0581 26.42055,-2.84174 35.86809,-12.33489 17.11024,-14.71858 20.24836,-42.68766 6.27168,-60.5581 -12.70981,-18.09685 -39.16292,-23.95064 -58.36912,-13.06433 -23.20151,11.55746 -31.11657,44.91079 -15.53571,65.66414 3.36484,4.68976 7.73645,8.50714 11.55455,12.80488 -11.10656,2.63471 -22.12264,6.45091 -32.44055,11.40038 -11.48376,-14.33132 -19.2634,-32.42427 -17.69947,-51.07939 -1.25578,-24.17405 12.25977,-47.45605 31.60331,-61.28288 12.01396,-8.14809 26.54735,-14.55676 41.41933,-13.36426 19.9399,-0.77562 37.89005,6.16905 51.79492,16.91704 z m -48.54671,23.46148 c 16.80821,-0.55654 32.58586,12.98759 34.68679,29.724 2.86856,14.70633 -5.04569,30.23279 -18.4285,37.01775 -16.10916,9.52534 -38.8251,2.8996 -47.57519,-13.63686 -10.21432,-17.28604 -2.82421,-42.98166 16.45191,-50.30105 4.73209,-1.95866 9.78143,-2.84504 14.86499,-2.80384 z m 59.79009,98.20305 c 11.85273,6.28378 21.74592,15.99939 30.48513,26.07725 17.47063,20.50587 25.56454,47.23602 27.05767,73.7811 0.85735,12.39149 4.61769,25.24971 14.40688,33.56459 16.55049,16.83521 47.02275,16.74251 63.14894,-0.70916 10.37473,-9.33295 14.74107,-23.74274 12.93998,-37.39798 -1.06639,-23.72278 -24.75864,-42.11588 -47.8681,-40.05573 -14.08527,0.64926 -26.86257,8.84921 -35.14248,19.98655 -2.2633,-10.86655 -6.73916,-21.15288 -10.57093,-31.38692 0.2344,-4.94051 6.64178,-6.33318 9.87184,-9.13187 22.41458,-13.2962 51.64529,-14.63117 74.54514,-1.89316 26.91516,13.71821 43.6677,44.55471 40.51166,74.49783 -2.0837,24.88827 -16.93893,48.68458 -39.41878,60.23629 -9.99928,6.05591 -21.44193,8.97393 -33.05811,8.75941 -14.12644,1.44172 -28.38307,-1.57112 -40.65646,-8.71435 -19.44184,-11.26973 -34.6824,-30.71357 -37.96173,-53.38449 -2.96777,-18.42467 -2.55898,-38.13045 -12.58192,-54.63734 -10.08308,-18.31147 -26.84737,-33.07014 -46.37218,-40.43054 3.44015,-2.65818 9.50559,-4.54926 13.7033,-7.31485 6.16712,-3.10448 11.27589,-7.8751 16.74061,-11.86047 l 0.0535,-0.003 0.16595,0.0173 z m -222.73958,24.07207 c 35.92185,-0.46836 69.58468,28.42053 74.55653,64.12127 2.13714,18.44411 2.77301,37.92618 12.55373,54.34506 10.29864,18.00164 26.82856,32.54349 46.32882,39.7638 -11.57382,4.25048 -21.85923,11.83835 -31.41198,19.21337 -22.77313,-14.61061 -41.23991,-36.23534 -50.07011,-61.99921 -6.25298,-16.23287 -5.90635,-34.0628 -8.66548,-51.09816 -5.81343,-19.30206 -24.6442,-34.56249 -45.22073,-33.34666 -20.50268,0.60877 -39.93938,16.00918 -43.44363,36.56214 -5.36789,23.84242 12.14892,50.18386 36.56865,53.52002 15.37897,3.26308 31.65473,-2.7201 41.97598,-14.42733 1.48112,-0.78391 4.89608,-6.04166 5.15321,-1.97531 2.18663,10.30396 7.13,20.01024 9.99527,29.95474 -7.35902,7.78928 -17.93131,11.93161 -27.88372,15.52741 -11.13866,3.37514 -23.05539,1.94515 -34.50633,1.59823 -15.62004,-2.08087 -30.02764,-10.72582 -41.22573,-21.61591 -23.2449,-22.89329 -28.69603,-61.01444 -13.07751,-89.51827 12.88953,-25.11568 40.25771,-41.09872 68.37303,-40.62519 z m 161.10498,0.007 c 30.76011,-0.80348 61.28972,18.58266 72.29196,47.67193 12.2576,29.72345 3.53052,66.84566 -21.52042,87.40287 -14.85802,12.82906 -34.70764,18.9839 -54.20126,17.47158 -37.52418,-0.74922 -70.97212,-34.89942 -71.23461,-72.40382 -2.86942,-34.57148 21.96039,-68.75857 55.43615,-77.42176 6.27759,-1.73665 12.6926,-2.6394 19.22818,-2.7208 z m -162.10071,40.74453 c 16.08445,-0.0839 32.94716,12.19653 34.99036,28.7526 0.4438,9.47599 0.926,19.96695 -5.75135,27.60237 -6.75831,9.24329 -17.7902,15.85033 -29.53461,14.6591 -21.5039,1.55682 -39.10365,-21.62549 -34.35246,-42.14211 2.77329,-16.51924 18.12189,-28.83698 34.64806,-28.87196 z m 327.04684,0.11069 c 17.93687,-0.53771 34.78503,14.8245 35.50895,32.96613 1.81667,19.59032 -15.41694,39.34453 -35.42425,37.958 -11.40604,0.96723 -22.39274,-5.15825 -28.92439,-14.21975 -7.39809,-9.68059 -8.1392,-23.4481 -4.1938,-34.7529 5.35872,-13.26936 18.79701,-22.1945 33.03349,-21.95148 z m -80.10563,68.28982 c 4.36506,10.00931 10.38426,19.34727 17.81411,27.35848 -15.56897,24.57943 -39.37672,44.56056 -67.7382,52.26084 -16.92106,5.86612 -35.55164,3.34502 -52.34157,9.6914 -20.53704,8.94252 -31.8357,34.3739 -24.28507,55.57388 6.43631,20.9117 29.37475,34.91639 50.89129,30.64934 20.81618,-3.3726 37.85448,-22.64359 37.49521,-43.9704 0.90943,-14.68487 -6.82044,-28.44169 -17.82334,-37.68888 -2.88925,-3.04536 6.84222,-3.07132 9.50655,-4.84969 7.17926,-1.93674 13.88136,-5.64518 21.06068,-7.3612 4.40444,2.57354 6.20234,8.32937 9.1461,12.381 6.45132,11.62488 9.79176,24.91599 8.75486,38.2435 1.26272,30.10318 -19.85091,58.40808 -47.24196,69.51272 -14.84818,6.13565 -31.63478,6.7444 -47.20699,3.31754 -33.79458,-7.88459 -59.64459,-41.32975 -57.58602,-76.13741 -0.65049,-36.71326 30.47215,-70.69594 66.9853,-74.00474 17.26774,-2.23689 35.66965,-2.5058 50.96301,-11.96422 18.49044,-10.16669 32.05473,-27.53314 40.13839,-46.80017 0.48921,1.26267 0.97842,2.52534 1.46765,3.78801 z m -82.99599,95.35944 c 16.80821,-0.55654 32.58586,12.98759 34.68679,29.72399 2.86856,14.70633 -5.04569,30.2328 -18.4285,37.01776 -16.10916,9.52533 -38.8251,2.89959 -47.57519,-13.63687 -10.21432,-17.28604 -2.82421,-42.98166 16.45191,-50.30106 4.73209,-1.95865 9.78143,-2.84503 14.86499,-2.80382 z"
         id="path4147"
         inkscape:connector-curvature="0" />
      <g
         id="g4297">
        <path
           style="color:#000000;clip-rule:nonzero;display:inline;overflow:visible;visibility:visible;opacity:1;isolation:auto;mix-blend-mode:normal;color-interpolation:sRGB;color-interpolation-filters:linearRGB;solid-color:#000000;solid-opacity:1;fill:url(#linearGradient4227);fill-opacity:1;fill-rule:evenodd;stroke:none;stroke-width:1px;stroke-linecap:butt;stroke-linejoin:miter;stroke-miterlimit:4;stroke-dasharray:none;stroke-dashoffset:0;stroke-opacity:1;color-rendering:auto;image-rendering:auto;shape-rendering:auto;text-rendering:auto;enable-background:accumulate"
           d="m 470.58238,617.67918 c 12.04604,-8.45167 22.64714,-19.06348 31.26758,-30.91406 4.80505,-3.69149 3.86915,-11.14964 -0.99219,-14.33008 -6.67733,-8.27906 -11.40851,-17.9063 -15.44531,-27.69141 -6.87365,11.94423 -12.43785,24.96314 -22.82813,34.4375 -3.03861,3.03932 -6.30675,5.81938 -9.75781,8.33203 l 17.75586,30.16602 z"
           id="path4223"
           inkscape:connector-curvature="0" />
        <path
           style="color:#000000;clip-rule:nonzero;display:inline;overflow:visible;visibility:visible;opacity:1;isolation:auto;mix-blend-mode:normal;color-interpolation:sRGB;color-interpolation-filters:linearRGB;solid-color:#000000;solid-opacity:1;fill:url(#linearGradient4229);fill-opacity:1;fill-rule:evenodd;stroke:none;stroke-width:1px;stroke-linecap:butt;stroke-linejoin:miter;stroke-miterlimit:4;stroke-dasharray:none;stroke-dashoffset:0;stroke-opacity:1;color-rendering:auto;image-rendering:auto;shape-rendering:auto;text-rendering:auto;enable-background:accumulate"
           d="m 527.07262,494.66356 c 6.24141,-0.54735 8.86803,-8.08772 14.07617,-10.91993 10.20627,-7.62005 23.7828,-9.56889 36.03515,-6.56054 l -15.98242,-36.3125 c -0.74734,0.0524 -1.4942,0.11317 -2.24023,0.1875 -16.23002,1.19392 -31.54885,8.68389 -44.20703,18.66211 3.10157,10.143 7.91324,20.03321 10.27148,30.28906 l 2.04688,4.6543 z"
           id="path4225"
           inkscape:connector-curvature="0" />
        <path
           inkscape:connector-curvature="0"
           style="color:#000000;clip-rule:nonzero;display:inline;overflow:visible;visibility:visible;opacity:1;isolation:auto;mix-blend-mode:normal;color-interpolation:sRGB;color-interpolation-filters:linearRGB;solid-color:#000000;solid-opacity:1;fill:url(#linearGradient4193);fill-opacity:1;fill-rule:evenodd;stroke:none;stroke-width:1px;stroke-linecap:butt;stroke-linejoin:miter;stroke-miterlimit:4;stroke-dasharray:none;stroke-dashoffset:0;stroke-opacity:1;color-rendering:auto;image-rendering:auto;shape-rendering:auto;text-rendering:auto;enable-background:accumulate"
           d="m 335.09514,419.56192 c -12.04604,8.45167 -22.64714,19.06348 -31.26758,30.91406 -4.80505,3.69149 -3.86915,11.14964 0.99219,14.33008 6.67733,8.27906 11.40851,17.9063 15.44531,27.69141 6.87365,-11.94423 12.43785,-24.96314 22.82813,-34.4375 3.03861,-3.03932 6.30675,-5.81938 9.75781,-8.33203 l -17.75586,-30.16602 z"
           id="rect4185" />
        <path
           inkscape:connector-curvature="0"
           style="color:#000000;clip-rule:nonzero;display:inline;overflow:visible;visibility:visible;opacity:1;isolation:auto;mix-blend-mode:normal;color-interpolation:sRGB;color-interpolation-filters:linearRGB;solid-color:#000000;solid-opacity:1;fill:url(#linearGradient4197);fill-opacity:1;fill-rule:evenodd;stroke:none;stroke-width:1px;stroke-linecap:butt;stroke-linejoin:miter;stroke-miterlimit:4;stroke-dasharray:none;stroke-dashoffset:0;stroke-opacity:1;color-rendering:auto;image-rendering:auto;shape-rendering:auto;text-rendering:auto;enable-background:accumulate"
           d="m 278.6049,542.57754 c -6.24141,0.54735 -8.86803,8.08772 -14.07617,10.91993 -10.20627,7.62005 -23.7828,9.56889 -36.03515,6.56054 l 15.98242,36.3125 c 0.74734,-0.0524 1.4942,-0.11317 2.24023,-0.1875 16.23002,-1.19392 31.54885,-8.68389 44.20703,-18.66211 -3.10157,-10.143 -7.91324,-20.03321 -10.27148,-30.28906 l -2.04688,-4.6543 z"
           id="rect4195" />
        <path
           inkscape:connector-curvature="0"
           id="path4213"
           d="m 304.66799,585.47631 c 8.45167,12.04604 19.06348,22.64714 30.91406,31.26758 3.69149,4.80505 11.14964,3.86915 14.33008,-0.99219 8.27906,-6.67733 17.9063,-11.40851 27.69141,-15.44531 -11.94423,-6.87365 -24.96314,-12.43785 -34.4375,-22.82813 -3.03932,-3.03861 -5.81938,-6.30675 -8.33203,-9.75781 l -30.16602,17.75586 z"
           style="color:#000000;clip-rule:nonzero;display:inline;overflow:visible;visibility:visible;opacity:1;isolation:auto;mix-blend-mode:normal;color-interpolation:sRGB;color-interpolation-filters:linearRGB;solid-color:#000000;solid-opacity:1;fill:url(#linearGradient4217);fill-opacity:1;fill-rule:evenodd;stroke:none;stroke-width:1px;stroke-linecap:butt;stroke-linejoin:miter;stroke-miterlimit:4;stroke-dasharray:none;stroke-dashoffset:0;stroke-opacity:1;color-rendering:auto;image-rendering:auto;shape-rendering:auto;text-rendering:auto;enable-background:accumulate" />
        <path
           inkscape:connector-curvature="0"
           id="path4215"
           d="m 427.68361,641.96655 c 0.54735,6.24141 8.08772,8.86803 10.91993,14.07617 7.62005,10.20627 9.56889,23.78279 6.56054,36.03515 l 36.3125,-15.98242 c -0.0524,-0.74734 -0.11317,-1.4942 -0.1875,-2.24023 -1.19392,-16.23002 -8.68389,-31.54885 -18.66211,-44.20703 -10.143,3.10157 -20.03321,7.91324 -30.28906,10.27148 l -4.6543,2.04688 z"
           style="color:#000000;clip-rule:nonzero;display:inline;overflow:visible;visibility:visible;opacity:1;isolation:auto;mix-blend-mode:normal;color-interpolation:sRGB;color-interpolation-filters:linearRGB;solid-color:#000000;solid-opacity:1;fill:url(#linearGradient4219);fill-opacity:1;fill-rule:evenodd;stroke:none;stroke-width:1px;stroke-linecap:butt;stroke-linejoin:miter;stroke-miterlimit:4;stroke-dasharray:none;stroke-dashoffset:0;stroke-opacity:1;color-rendering:auto;image-rendering:auto;shape-rendering:auto;text-rendering:auto;enable-background:accumulate" />
        <path
           inkscape:connector-curvature="0"
           id="path4233"
           d="m 502.1933,449.98907 c -8.45167,-12.04604 -19.06348,-22.64714 -30.91406,-31.26758 -3.69149,-4.80505 -11.14964,-3.86915 -14.33008,0.99219 -8.27906,6.67733 -17.9063,11.40851 -27.69141,15.44531 11.94423,6.87365 24.96314,12.43785 34.4375,22.82813 3.03932,3.03861 5.81938,6.30675 8.33203,9.75781 l 30.16602,-17.75586 z"
           style="color:#000000;clip-rule:nonzero;display:inline;overflow:visible;visibility:visible;opacity:1;isolation:auto;mix-blend-mode:normal;color-interpolation:sRGB;color-interpolation-filters:linearRGB;solid-color:#000000;solid-opacity:1;fill:url(#linearGradient4237);fill-opacity:1;fill-rule:evenodd;stroke:none;stroke-width:1px;stroke-linecap:butt;stroke-linejoin:miter;stroke-miterlimit:4;stroke-dasharray:none;stroke-dashoffset:0;stroke-opacity:1;color-rendering:auto;image-rendering:auto;shape-rendering:auto;text-rendering:auto;enable-background:accumulate" />
        <path
           inkscape:connector-curvature="0"
           id="path4235"
           d="m 379.17768,393.49883 c -0.54735,-6.24141 -8.08772,-8.86803 -10.91993,-14.07617 -7.62005,-10.20627 -9.56889,-23.7828 -6.56054,-36.03515 l -36.3125,15.98242 c 0.0524,0.74734 0.11317,1.4942 0.1875,2.24023 1.19392,16.23002 8.68389,31.54885 18.66211,44.20703 10.143,-3.10157 20.03321,-7.91324 30.28906,-10.27148 l 4.6543,-2.04688 z"
           style="color:#000000;clip-rule:nonzero;display:inline;overflow:visible;visibility:visible;opacity:1;isolation:auto;mix-blend-mode:normal;color-interpolation:sRGB;color-interpolation-filters:linearRGB;solid-color:#000000;solid-opacity:1;fill:url(#linearGradient4239);fill-opacity:1;fill-rule:evenodd;stroke:none;stroke-width:1px;stroke-linecap:butt;stroke-linejoin:miter;stroke-miterlimit:4;stroke-dasharray:none;stroke-dashoffset:0;stroke-opacity:1;color-rendering:auto;image-rendering:auto;shape-rendering:auto;text-rendering:auto;enable-background:accumulate" />
      </g>
    </g>
  </g>
</svg>
